<svg xmlns="http://www.w3.org/2000/svg" xmlns:xlink="http://www.w3.org/1999/xlink" width="500" zoomAndPan="magnify" viewBox="0 0 375 374.999991" height="500" preserveAspectRatio="xMidYMid meet" version="1.0"><defs><clipPath id="139fc813f6"><path d="M 1 45 L 375 45 L 375 331.078125 L 1 331.078125 Z M 1 45 " clip-rule="nonzero"/></clipPath></defs><g clip-path="url(#139fc813f6)"><path fill="#1a1a40" d="M 373.949219 254.03125 L 328.0625 73.058594 C 326.855469 68.347656 324.300781 64.09375 320.710938 60.8125 C 317.117188 57.53125 312.648438 55.367188 307.847656 54.589844 L 251.777344 45.382812 C 245.597656 44.390625 239.269531 45.730469 234.019531 49.144531 C 228.773438 52.558594 224.984375 57.800781 223.386719 63.855469 L 223.0625 65.175781 C 222.847656 66.015625 222.816406 66.890625 222.960938 67.746094 C 223.105469 68.597656 223.429688 69.410156 223.90625 70.132812 C 224.386719 70.855469 225.011719 71.46875 225.742188 71.933594 C 226.46875 72.402344 227.289062 72.710938 228.144531 72.84375 C 241.011719 74.730469 253.703125 77.652344 266.101562 81.582031 C 269.199219 82.515625 271.824219 84.59375 273.449219 87.394531 C 275.070312 90.195312 275.566406 93.507812 274.839844 96.664062 C 274.417969 98.304688 273.667969 99.847656 272.628906 101.1875 C 271.59375 102.53125 270.292969 103.648438 268.808594 104.46875 C 267.324219 105.289062 265.691406 105.800781 264 105.964844 C 262.3125 106.132812 260.609375 105.949219 258.992188 105.433594 C 212.996094 91.328125 163.835938 91.273438 117.808594 105.277344 C 114.695312 106.324219 111.296875 106.132812 108.320312 104.738281 C 105.34375 103.347656 103.015625 100.859375 101.824219 97.796875 C 101.257812 96.226562 101.015625 94.558594 101.109375 92.890625 C 101.199219 91.222656 101.628906 89.589844 102.363281 88.089844 C 103.101562 86.589844 104.132812 85.257812 105.398438 84.164062 C 106.664062 83.074219 108.132812 82.246094 109.722656 81.738281 C 122.277344 77.738281 135.128906 74.765625 148.160156 72.84375 C 149.015625 72.710938 149.835938 72.402344 150.566406 71.933594 C 151.292969 71.46875 151.917969 70.855469 152.398438 70.132812 C 152.875 69.410156 153.199219 68.597656 153.34375 67.746094 C 153.492188 66.890625 153.457031 66.015625 153.246094 65.175781 L 152.917969 63.855469 C 151.324219 57.796875 147.527344 52.550781 142.273438 49.136719 C 137.015625 45.722656 130.679688 44.390625 124.496094 45.398438 L 68.394531 54.601562 C 63.597656 55.382812 59.128906 57.542969 55.539062 60.820312 C 51.949219 64.097656 49.390625 68.351562 48.183594 73.058594 L 2.296875 254.03125 C 0.859375 259.722656 1.484375 265.738281 4.0625 271.007812 C 6.644531 276.277344 11.007812 280.460938 16.382812 282.816406 L 120.5625 329.011719 C 123.695312 330.402344 127.078125 331.140625 130.507812 331.175781 C 133.933594 331.214844 137.335938 330.546875 140.496094 329.222656 C 143.65625 327.898438 146.515625 325.941406 148.890625 323.472656 C 151.269531 321 153.117188 318.070312 154.320312 314.859375 L 159.746094 300.167969 C 160.066406 299.285156 160.1875 298.34375 160.097656 297.410156 C 160.003906 296.480469 159.703125 295.578125 159.214844 294.777344 C 158.722656 293.980469 158.0625 293.300781 157.273438 292.792969 C 156.484375 292.285156 155.589844 291.960938 154.660156 291.847656 C 139.554688 290.019531 124.652344 286.792969 110.144531 282.207031 C 107.058594 281.269531 104.441406 279.199219 102.824219 276.40625 C 101.203125 273.617188 100.703125 270.316406 101.421875 267.171875 C 101.835938 265.523438 102.585938 263.980469 103.621094 262.632812 C 104.660156 261.285156 105.960938 260.164062 107.445312 259.339844 C 108.933594 258.515625 110.570312 258.003906 112.265625 257.835938 C 113.953125 257.671875 115.664062 257.851562 117.28125 258.371094 C 163.449219 272.511719 212.792969 272.511719 258.960938 258.371094 C 260.578125 257.855469 262.285156 257.675781 263.972656 257.839844 C 265.664062 258.007812 267.296875 258.519531 268.785156 259.339844 C 270.265625 260.164062 271.566406 261.28125 272.601562 262.625 C 273.640625 263.972656 274.390625 265.511719 274.808594 267.15625 C 275.53125 270.304688 275.035156 273.609375 273.414062 276.40625 C 271.796875 279.199219 269.175781 281.273438 266.085938 282.207031 C 251.582031 286.792969 236.683594 290.019531 221.582031 291.847656 C 220.652344 291.960938 219.757812 292.285156 218.972656 292.792969 C 218.183594 293.300781 217.519531 293.980469 217.03125 294.777344 C 216.539062 295.578125 216.238281 296.480469 216.148438 297.410156 C 216.054688 298.34375 216.175781 299.285156 216.5 300.167969 L 221.925781 314.859375 C 223.128906 318.070312 224.976562 320.996094 227.355469 323.46875 C 229.734375 325.933594 232.589844 327.894531 235.75 329.21875 C 238.910156 330.542969 242.308594 331.207031 245.738281 331.171875 C 249.164062 331.136719 252.550781 330.402344 255.683594 329.011719 L 359.859375 282.816406 C 365.234375 280.460938 369.601562 276.277344 372.179688 271.007812 C 374.761719 265.738281 375.386719 259.722656 373.949219 254.03125 Z M 132.144531 219.21875 C 128.457031 219.21875 124.847656 218.125 121.777344 216.074219 C 118.710938 214.023438 116.320312 211.109375 114.90625 207.699219 C 113.496094 204.292969 113.125 200.539062 113.84375 196.921875 C 114.566406 193.300781 116.34375 189.976562 118.953125 187.367188 C 121.5625 184.757812 124.886719 182.980469 128.507812 182.261719 C 132.125 181.539062 135.875 181.910156 139.285156 183.324219 C 142.695312 184.734375 145.609375 187.125 147.660156 190.195312 C 149.710938 193.261719 150.804688 196.871094 150.804688 200.5625 C 150.804688 205.507812 148.839844 210.257812 145.339844 213.753906 C 141.839844 217.253906 137.09375 219.21875 132.144531 219.21875 Z M 244.097656 219.21875 C 240.40625 219.21875 236.800781 218.125 233.730469 216.074219 C 230.664062 214.023438 228.273438 211.109375 226.859375 207.699219 C 225.449219 204.292969 225.078125 200.539062 225.796875 196.921875 C 226.519531 193.300781 228.296875 189.976562 230.902344 187.367188 C 233.511719 184.757812 236.839844 182.980469 240.457031 182.261719 C 244.078125 181.539062 247.828125 181.910156 251.238281 183.324219 C 254.648438 184.734375 257.5625 187.125 259.613281 190.195312 C 261.660156 193.261719 262.757812 196.871094 262.757812 200.5625 C 262.757812 205.507812 260.792969 210.257812 257.292969 213.753906 C 253.792969 217.253906 249.046875 219.21875 244.097656 219.21875 Z M 244.097656 219.21875 " fill-opacity="1" fill-rule="nonzero"/></g></svg>