<svg xmlns="http://www.w3.org/2000/svg" xmlns:xlink="http://www.w3.org/1999/xlink" width="500" zoomAndPan="magnify" viewBox="0 0 375 374.999991" height="500" preserveAspectRatio="xMidYMid meet" version="1.0"><defs><clipPath id="a3a8322d48"><path d="M 35 1.0625 L 341 1.0625 L 341 374.996094 L 35 374.996094 Z M 35 1.0625 " clip-rule="nonzero"/></clipPath></defs><g clip-path="url(#a3a8322d48)"><path fill="#1a1a40" d="M 214.929688 92.261719 L 277.332031 28.117188 L 313.546875 65.207031 L 248.09375 127.609375 L 340.167969 127.609375 L 340.167969 179.097656 L 247.65625 179.097656 L 313.546875 243.097656 L 277.332031 279.460938 L 187.875 189.574219 L 98.421875 279.460938 L 62.203125 243.246094 L 128.09375 179.242188 L 35.585938 179.242188 L 35.585938 127.609375 L 127.65625 127.609375 L 62.203125 65.207031 L 98.421875 28.117188 L 160.820312 92.261719 L 160.820312 1.0625 L 214.929688 1.0625 Z M 160.820312 252.84375 L 214.929688 252.84375 L 214.929688 375.027344 L 160.820312 375.027344 Z M 160.820312 252.84375 " fill-opacity="1" fill-rule="nonzero"/></g></svg>