<?xml version="1.0" encoding="utf-8"?>
<!-- Generator: Adobe Illustrator 27.9.4, SVG Export Plug-In . SVG Version: 9.03 Build 54784)  -->
<svg version="1.1" id="Layer_1" xmlns="http://www.w3.org/2000/svg" xmlns:xlink="http://www.w3.org/1999/xlink" x="0px" y="0px"
	 viewBox="0 0 1000 781" style="enable-background:new 0 0 1000 781;" xml:space="preserve">
<style type="text/css">
	.st0{fill:#1A1A40;}
	.st1{fill:#1A1A40;stroke:#FFFFFF;stroke-width:1.1143;stroke-miterlimit:10;}
</style>
<path class="st0" d="M982.2,373.2c-8.1-85.5-35.7-347.8-36.1-357.6c-0.4-11.4-16.7-26-16.7-4.9c0,14.6-13.2,182.3-13.2,303.7
	c-1.4-2.1-2.2-3.2-2.2-3.2h-30.1C829.8,178.3,686.1,81.8,515.4,76h-3.8h-3.8c-2.9,0-5.6,0-8.8,0c-3,0-5.9,0-8.8,0h-3.8h-3.7
	c-170.7,5.6-314.5,102.3-368.5,235.3H86.2l-2.2,3.2c0-121.4-13.2-289.1-13.2-303.7c0-21.1-16.3-6.6-16.7,4.9
	c-0.3,9.8-27.9,272.1-36.1,357.6C6.2,389-0.1,408.3,0,428.1c0,31.6,20.9,65.3,46.6,65.3c6.5,18.3,15.4,35.6,26.5,51.5h41.3
	c55.7,137.2,207,235.6,384.6,235.6s328.9-98.4,384.6-235.6H927c11-16,19.9-33.3,26.5-51.5c25.7,0,46.5-33.4,46.5-65.3
	C1000.2,408.4,993.9,389.1,982.2,373.2L982.2,373.2z M499,756.7c-184.4,0-333.9-120.1-333.9-268.2c0-110.8,83.6-205.9,202.9-246.8
	l21.8,54c1.9,4.6,5.1,8.6,9.2,11.4c4.1,2.8,9,4.3,14,4.3h172.5c5,0,9.9-1.5,14-4.3c4.1-2.8,7.4-6.8,9.2-11.4l21.7-53.7
	c119,41,202.3,136,202.3,246.6C832.8,636.7,683.3,756.7,499,756.7z"/>
<path class="st0" d="M609.8,409.5c-10.5,0-20.6,4.2-28,11.6c-7.4,7.4-11.6,17.5-11.6,28v96c0,10.5,4.2,20.6,11.6,28
	c7.4,7.4,17.5,11.6,28,11.6s20.6-4.2,28-11.6c7.4-7.4,11.6-17.5,11.6-28v-96c0-10.5-4.2-20.6-11.6-28
	C630.3,413.7,620.3,409.5,609.8,409.5L609.8,409.5z"/>
<path class="st1" d="M499.5,673.8c-23,0-41.7-16.7-41.7-37.2h13.5c0,13.1,12.7,23.7,28.2,23.7s28.3-10.6,28.3-23.7h13.5
	C541.2,657.1,522.5,673.8,499.5,673.8z"/>
<path class="st0" d="M388.1,409.5c-10.5,0-20.6,4.2-28,11.6c-7.4,7.4-11.6,17.5-11.6,28v96c0,10.5,4.2,20.6,11.6,28
	c7.4,7.4,17.5,11.6,28,11.6c10.5,0,20.6-4.2,28-11.6c7.4-7.4,11.6-17.5,11.6-28v-96c0-10.5-4.2-20.6-11.6-28
	C408.7,413.7,398.6,409.5,388.1,409.5z"/>
</svg>
